<?xml version="1.0" encoding="UTF-8" standalone="no"?>
<!-- Created with Inkscape (http://www.inkscape.org/) -->

<svg
   xmlns:dc="http://purl.org/dc/elements/1.1/"
   xmlns:cc="http://creativecommons.org/ns#"
   xmlns:rdf="http://www.w3.org/1999/02/22-rdf-syntax-ns#"
   xmlns:svg="http://www.w3.org/2000/svg"
   xmlns="http://www.w3.org/2000/svg"
   xmlns:sodipodi="http://sodipodi.sourceforge.net/DTD/sodipodi-0.dtd"
   xmlns:inkscape="http://www.inkscape.org/namespaces/inkscape"
   width="123.47205mm"
   height="123.47205mm"
   viewBox="0 0 123.47205 123.47205"
   version="1.1"
   id="svg8"
   inkscape:version="0.91 r13725"
   sodipodi:docname="logo.svg"
   inkscape:export-filename="C:\Users\Georg\Downloads\logo.png"
   inkscape:export-xdpi="96"
   inkscape:export-ydpi="96">
  <defs
     id="defs2" />
  <sodipodi:namedview
     id="base"
     pagecolor="#ffffff"
     bordercolor="#666666"
     borderopacity="1.0"
     inkscape:pageopacity="0.0"
     inkscape:pageshadow="2"
     inkscape:zoom="0.7"
     inkscape:cx="-32.268655"
     inkscape:cy="53.778561"
     inkscape:document-units="mm"
     inkscape:current-layer="layer1"
     showgrid="false"
     inkscape:window-width="1600"
     inkscape:window-height="863"
     inkscape:window-x="0"
     inkscape:window-y="0"
     inkscape:window-maximized="1"
     fit-margin-top="0"
     fit-margin-left="0"
     fit-margin-right="0"
     fit-margin-bottom="0">
    <inkscape:grid
       type="xygrid"
       id="grid3713"
       originx="-39.511282"
       originy="-118.53338" />
  </sodipodi:namedview>
  <metadata
     id="metadata5">
    <rdf:RDF>
      <cc:Work
         rdf:about="">
        <dc:format>image/svg+xml</dc:format>
        <dc:type
           rdf:resource="http://purl.org/dc/dcmitype/StillImage" />
        <dc:title />
      </cc:Work>
    </rdf:RDF>
  </metadata>
  <g
     inkscape:label="Layer 1"
     inkscape:groupmode="layer"
     id="layer1"
     transform="translate(-39.511282,-54.994576)">
    <g
       id="g4581"
       style="fill:#0496ff;fill-opacity:1">
      <path
         transform="scale(0.26458333)"
         id="path4572"
         d="m 616,558.62305 c -2.36029,14.3494 -8.95154,26.38581 -19.81641,36.08789 -13.79123,12.30221 -32.25499,18.45312 -55.38867,18.45312 h -20.55273 v 61.35547 h 2.42383 C 574.37266,674.51953 616,632.89222 616,581.18555 Z"
         style="opacity:1;fill:#0496ff;fill-opacity:1;stroke:#000000;stroke-width:0;stroke-miterlimit:4;stroke-dasharray:none;stroke-opacity:1"
         inkscape:connector-curvature="0" />
      <path
         transform="scale(0.26458333)"
         id="path4570"
         d="m 520.24219,517.15234 v 62.01954 h 16.94922 c 22.95573,-10e-6 34.43359,-10.45291 34.43359,-31.35743 0,-20.44202 -11.47786,-30.66211 -34.43359,-30.66211 z"
         style="opacity:1;fill:#0496ff;fill-opacity:1;stroke:#000000;stroke-width:0;stroke-miterlimit:4;stroke-dasharray:none;stroke-opacity:1"
         inkscape:connector-curvature="0" />
      <path
         transform="scale(0.26458333)"
         id="path4566"
         d="m 366.72852,207.85352 v 154.40429 h 0.0312 v 90.48828 h 0.66015 c 1.05415,-2.49132 2.80985,-6.04904 5.26953,-10.67578 l 52.18164,-79.8125 h 50.73047 l -65.88476,91.28907 67.41601,94.3125 v -65.11719 h 67.53321 c 42.58369,0 66.35273,16.49266 71.33398,49.45312 V 301.18555 c 0,-51.70667 -41.62734,-93.33203 -93.33398,-93.33203 z"
         style="opacity:1;fill:#0496ff;fill-opacity:1;stroke:#000000;stroke-width:0;stroke-miterlimit:4;stroke-dasharray:none;stroke-opacity:1"
         inkscape:connector-curvature="0" />
    </g>
    <g
       id="g4576"
       style="fill:#dd1c1a;fill-opacity:1">
      <path
         transform="scale(0.26458333)"
         id="path4568"
         d="m 185.75195,243.55859 c 1.15669,18.86285 1.73633,35.41233 1.73633,49.64844 v 105.83594 h -38.1543 v 182.14258 c 0,51.70667 41.62536,93.33398 93.33204,93.33398 h 234.46679 v -120.875 h -49.62695 l -55.08008,-83.14648 c -1.05415,-1.60157 -2.72187,-5.11741 -5.00586,-10.54493 h -0.66015 v 93.69141 H 324.19922 V 399.04297 h -0.0449 V 284.53125 c 0,-12.36762 0.53385,-26.02474 1.60156,-40.97266 h -1.06836 c -2.22439,11.7448 -4.22635,20.19684 -6.00586,25.35743 L 273.83789,399.04297 H 238.60352 L 192.95898,270.25195 c -1.24566,-3.47005 -3.24761,-12.36827 -6.00586,-26.69336 z"
         style="opacity:1;fill:#dd1c1a;fill-opacity:1;stroke:#000000;stroke-width:0;stroke-miterlimit:4;stroke-dasharray:none;stroke-opacity:1"
         inkscape:connector-curvature="0" />
      <path
         transform="scale(0.26458333)"
         id="rect3719"
         d="m 242.66602,207.85352 c -10.21673,0 -20.03638,1.62971 -29.22266,4.63671 l 37.43945,108.61133 c 3.11415,9.07552 5.38303,18.19488 6.80664,27.35938 h 0.80078 c 2.40235,-10.58811 4.93816,-19.79709 7.60743,-27.62696 l 39.03711,-112.98046 z"
         style="opacity:1;fill:#dd1c1a;fill-opacity:1;stroke:#000000;stroke-width:0;stroke-miterlimit:4;stroke-dasharray:none;stroke-opacity:1"
         inkscape:connector-curvature="0" />
    </g>
    <text
       xml:space="preserve"
       style="font-style:normal;font-variant:normal;font-weight:normal;font-stretch:normal;font-size:14.11111069px;line-height:1.25;font-family:'Nirmala UI';-inkscape-font-specification:'Nirmala UI';letter-spacing:0px;word-spacing:0px;fill:#000000;fill-opacity:1;stroke:none;stroke-width:0.26458332"
       x="-192.61667"
       y="69.811111"
       id="text3723"><tspan
         sodipodi:role="line"
         id="tspan3721"
         x="-192.61667"
         y="82.521759"
         style="font-style:normal;font-variant:normal;font-weight:normal;font-stretch:normal;font-family:'Nirmala UI';-inkscape-font-specification:'Nirmala UI';stroke-width:0.26458332" /></text>
    <path
       style="opacity:1;fill:#ffffff;fill-opacity:1;stroke:#000000;stroke-width:0;stroke-miterlimit:4;stroke-dasharray:none;stroke-opacity:1"
       d="m 65.5766,198.37312 c 0.06752,-6.80838 0.233045,-9.6034 0.643599,-10.86681 0.30398,-0.9355 0.469715,-2.25879 0.3683,-2.94065 -0.15793,-1.06169 -0.300143,-1.20366 -0.990282,-0.98849 -0.443257,0.1382 -0.930858,0.44095 -1.083602,0.67279 -0.195156,0.29623 -0.2794,0.28109 -0.283474,-0.051 -0.01376,-1.11822 -1.812846,-0.14784 -5.320639,2.86969 -0.807693,0.6948 -1.643856,1.20484 -1.858142,1.13341 -0.359674,-0.11989 0.211243,-0.61594 4.295643,-3.73239 0.80817,-0.61664 1.786175,-1.12115 2.173367,-1.12115 0.538771,0 0.707998,-0.28832 0.721042,-1.22843 0.0093,-0.67563 0.265218,-1.73868 0.568563,-2.36235 l 0.551524,-1.13392 -0.217567,1.13392 c -0.733187,3.82135 -0.659235,4.12392 0.755095,3.08972 0.792797,-0.5797 1.484418,-3.75164 1.390967,-6.37922 -0.03477,-0.97767 -0.398568,-3.34692 -0.808487,-5.265 -0.409893,-1.91807 -0.745252,-4.03137 -0.745252,-4.69621 0,-1.15568 -0.877385,-2.42417 -1.239626,-1.79219 -1.238514,2.16078 -1.374193,5.69392 -0.286967,7.47142 0.423095,0.69171 0.781447,2.19458 0.904134,3.79172 l 0.2032,2.64584 -0.47326,-2.66663 c -0.260297,-1.46665 -0.761286,-3.07782 -1.113287,-3.58038 -0.352002,-0.50257 -0.640027,-1.40035 -0.640027,-1.99508 0,-1.79562 -0.922682,-0.95959 -1.157076,1.04842 -0.134885,1.15534 -0.482944,2.03926 -0.955543,2.42662 -0.471302,0.38628 -0.914717,1.50859 -1.211421,3.06615 -0.257413,1.35127 -0.624364,3.26029 -0.815499,4.24228 -0.191108,0.98199 -0.539247,2.08757 -0.773641,2.45685 -0.369597,0.58224 -0.401347,0.54591 -0.239157,-0.27353 0.10287,-0.51972 0.296571,-1.6253 0.430424,-2.45685 0.133879,-0.83155 0.386794,-1.93713 0.562054,-2.45684 0.51017,-1.51282 0.807456,-3.24665 0.486066,-2.83482 -0.564885,0.72389 -1.617874,1.41302 -1.617874,1.05884 0,-0.19615 0.773483,-1.16389 1.718839,-2.15053 1.238012,-1.29204 1.746912,-2.14999 1.819117,-3.06684 0.08856,-1.12473 0.02037,-1.23026 -0.584915,-0.90627 -1.12395,0.60151 -0.775467,-0.19954 0.385022,-0.88505 1.171469,-0.69201 2.637208,-3.68855 1.80422,-3.68855 -0.256593,0 -0.750438,0.59532 -1.097412,1.32292 -0.346975,0.7276 -0.815843,1.32292 -1.041929,1.32292 -0.226113,0 -0.667809,0.2567 -0.981525,0.57043 -0.608145,0.60813 -1.442244,0.39939 -1.035315,-0.25907 0.158248,-0.25603 -0.06474,-0.29483 -0.641826,-0.11168 -0.672597,0.21347 -0.441431,-0.16142 0.96557,-1.56591 1.747018,-1.74388 1.799987,-1.85382 0.952659,-1.97696 -0.512233,-0.0744 -1.086379,0.12829 -1.338051,0.47247 -0.558165,0.76332 -0.969618,0.78241 -0.681513,0.0316 0.341577,-0.89017 -0.847223,-0.28348 -1.551888,0.79198 -0.329088,0.50227 -0.790892,0.91321 -1.026212,0.91321 -0.235294,0 -0.119036,-0.34123 0.258392,-0.75827 0.377428,-0.41705 0.574595,-0.8699 0.43815,-1.00634 -0.38489,-0.38489 -2.186464,0.57083 -2.078514,1.10265 0.128243,0.63202 -0.745649,2.17386 -1.232165,2.17386 -0.21283,0 -0.270589,-0.18831 -0.128349,-0.41847 0.175551,-0.28405 -0.02974,-0.33847 -0.639154,-0.16942 -0.86704,0.24053 -0.872675,0.22898 -0.164068,-0.33748 0.403516,-0.32259 0.87548,-0.58653 1.048782,-0.58653 0.173302,0 0.473498,-0.41666 0.66712,-0.9259 0.406903,-1.07027 1.843696,-1.54993 5.852292,-1.95373 2.496291,-0.25146 5.116248,-1.31219 5.116248,-2.0714 0,-0.40827 -0.522499,-0.44811 -0.901832,-0.0688 -0.149543,0.14954 -0.826161,0.29113 -1.503627,0.31466 -1.016476,0.0353 -1.227667,-0.0948 -1.208511,-0.74436 0.02461,-0.83558 -0.811371,-0.98523 -2.212181,-0.39601 -0.465693,0.1959 -0.638254,0.16646 -0.48432,-0.0826 0.311071,-0.5033 -1.351915,-1.25343 -2.778733,-1.25343 -0.613887,0 -1.116145,-0.17009 -1.116145,-0.37798 0,-0.58384 2.189612,-0.44667 3.174867,0.1989 0.484214,0.31728 1.407293,0.53672 2.051289,0.48765 0.7865,-0.0599 1.47103,0.19279 2.085287,0.76984 0.870399,0.81771 0.980228,0.83156 2.282137,0.28759 1.536514,-0.642 1.901904,-1.58203 0.475826,-1.2241 -0.615077,0.15437 -1.102492,-0.009 -1.570487,-0.52599 -0.373221,-0.41241 -1.119981,-0.7668 -1.65944,-0.78752 -0.93173,-0.0358 -0.938345,-0.05 -0.132027,-0.28348 l 0.848836,-0.2458 -0.754353,-1.23756 c -0.414867,-0.68066 -0.740437,-1.61615 -0.723477,-2.07887 0.02513,-0.68991 0.139065,-0.60324 0.632354,0.48161 l 0.601557,1.32291 0.274611,-1.5119 c 0.208677,-1.1488 0.127476,-1.67743 -0.338085,-2.20113 -0.641905,-0.72203 -1.554506,-3.6853 -1.533816,-4.98042 0.01561,-0.98095 1.01981,1.57595 1.059736,2.69846 0.01587,0.44471 0.363273,1.21011 0.772133,1.70089 l 0.743374,0.89232 0.01243,-1.03944 c 0.0069,-0.57169 0.197617,-1.03943 0.423783,-1.03943 0.268076,0 0.32512,0.50954 0.163857,1.46393 -0.173911,1.02943 -0.04927,1.89886 0.419999,2.92931 0.36703,0.80596 0.761048,1.87658 0.875586,2.37915 0.361209,1.58501 0.963718,1.24184 1.433803,-0.81662 0.315251,-1.38042 0.342371,-2.47175 0.08885,-3.57481 -0.238045,-1.03575 -0.234315,-1.93134 0.01085,-2.57594 0.557557,-1.46648 0.461672,-2.49064 -0.380259,-4.06148 -0.845899,-1.5783 -0.932392,-1.94482 -0.377984,-1.60217 0.20791,0.12848 0.375867,0.0109 0.373275,-0.26118 -0.0074,-0.77974 -2.91346,-3.70757 -3.679958,-3.70757 -0.380153,0 -1.35845,-0.34018 -2.173949,-0.75596 -0.815525,-0.41577 -1.758632,-0.75595 -2.095791,-0.75595 -0.337185,0 -0.629073,-0.21261 -0.648679,-0.47247 -0.01958,-0.25986 -0.152796,-0.85517 -0.296042,-1.32292 -0.149648,-0.48861 -0.09964,-0.85044 0.117502,-0.85044 0.207909,0 0.459872,0.29766 0.559964,0.66146 0.218096,0.79273 2.975213,2.24397 4.819888,2.53698 1.033092,0.1641 1.58361,0.58729 2.512933,1.93175 l 1.190043,1.72162 0.629205,-1.89431 c 0.469715,-1.41421 0.527341,-2.08459 0.227357,-2.6451 -0.490088,-0.91578 -0.514324,-1.29263 -0.06527,-1.0151 0.504825,0.312 0.925195,-2.45463 0.44577,-2.93403 -0.51046,-0.51047 -0.533426,-1.51148 -0.02749,-1.1988 0.61759,0.3817 -0.264795,-1.59822 -1.400969,-3.14342 -0.562742,-0.76538 -1.668118,-1.9971 -2.456365,-2.73717 -0.788247,-0.74008 -1.433195,-1.49617 -1.433195,-1.68021 0,-0.18405 -0.408173,-0.76916 -0.907045,-1.30025 -0.812403,-0.86486 -3.250697,-6.01332 -3.250697,-6.86383 0,-0.18612 0.170101,-0.3384 0.377984,-0.3384 0.207883,0 0.377984,0.28116 0.377984,0.6248 0,0.4988 0.152426,0.44903 0.755941,-0.24682 0.963004,-1.11037 0.961866,-2.83362 -0.0032,-4.83113 -0.876909,-1.81498 -1.855232,-2.46757 -3.195135,-2.13128 -0.520303,0.13059 -1.842003,0.018 -2.93706,-0.25011 -1.891348,-0.46312 -3.711813,-0.66956 -6.748754,-0.76527 -0.745754,-0.0235 -1.851342,0.20835 -2.456841,0.51523 -1.445231,0.73245 -3.935741,1.17929 -3.935741,0.70614 0,-0.20078 0.552792,-0.4863 1.228424,-0.63448 0.675632,-0.14818 1.821227,-0.58692 2.545736,-0.97497 0.724535,-0.38806 1.574985,-0.71899 1.889892,-0.7354 0.314907,-0.0164 0.121788,-0.19502 -0.42918,-0.39691 -0.954405,-0.34972 -3.222427,-3.22359 -2.843261,-3.60276 0.09921,-0.0992 0.661162,0.42216 1.248776,1.1586 0.587613,0.73644 1.582261,1.54159 2.210276,1.78922 0.628041,0.24763 1.397026,0.66131 1.708864,0.9193 0.311838,0.25798 1.502463,0.54914 2.645833,0.64701 1.143371,0.0979 2.674171,0.32771 3.401775,0.51074 0.727604,0.18303 1.883569,0.27772 2.568813,0.21042 1.084183,-0.10647 1.21367,-0.22944 0.997744,-0.94755 -0.136499,-0.45386 -0.758799,-1.36332 -1.382925,-2.02102 -0.624125,-0.6577 -1.505585,-2.27355 -1.958789,-3.59077 -0.719191,-2.09038 -1.029468,-2.5085 -2.43975,-3.28777 -1.532281,-0.84667 -2.531242,-2.319484 -2.189268,-3.227683 0.08599,-0.228367 0.339408,0.04438 0.563139,0.606116 0.441061,1.107368 2.370614,2.310607 3.393943,2.116417 0.447278,-0.0849 0.692203,-0.6246 0.825077,-1.818211 0.103954,-0.933632 0.359066,-1.672317 0.566975,-1.641522 0.456062,0.06756 0.309483,2.19189 -0.250005,3.623613 -0.559884,1.43268 0.555281,5.52334 1.748102,6.4125 0.823357,0.61374 0.895245,0.60523 1.595597,-0.18899 1.249812,-1.4173 2.090869,-5.00482 2.185458,-9.321896 0.048,-2.190652 0.216191,-4.28066 0.373803,-4.644462 0.473763,-1.093631 0.974778,-0.744063 0.541735,0.377976 -0.220636,0.571688 -0.351314,2.655282 -0.290381,4.630208 0.08943,2.899564 -0.05249,4.098264 -0.737367,6.227094 -0.46646,1.44998 -1.196922,3.00761 -1.623245,3.4614 l -0.775123,0.82508 0.794147,1.64128 c 0.645398,1.33388 1.417267,2.75971 2.201412,4.06662 0.422196,0.70366 1.606391,-4.00709 1.606391,-6.39023 0,-1.01702 0.170101,-1.95425 0.377984,-2.08273 0.228971,-0.14151 0.377957,0.38948 0.377957,1.34689 0,1.36202 0.07837,1.51545 0.566976,1.10995 0.82587,-0.68541 0.675349,-0.0253 -0.387826,1.7009 -0.512181,0.83154 -0.932074,1.94563 -0.933159,2.47574 0,0.53011 -0.214551,1.17713 -0.474398,1.43782 -0.378195,0.37941 -0.283951,0.61905 0.472466,1.20112 1.199542,0.92305 1.511909,0.92518 1.511909,0.0103 0,-0.40351 0.170074,-0.83877 0.377984,-0.96725 0.227779,-0.14077 0.377957,0.36361 0.377957,1.26928 0,2.05775 1.313206,5.06116 2.142834,4.90083 0.348588,-0.0674 1.072118,-0.90997 1.60782,-1.87246 0.535728,-0.96248 1.60057,-2.43872 2.366327,-3.28053 1.498415,-1.64728 2.193052,-3.52375 2.196386,-5.9333 0,-0.83292 0.167402,-2.09072 0.369411,-2.79511 0.453681,-1.58187 -0.119988,-4.44249 -1.106514,-5.51772 -0.769911,-0.83913 -1.463701,-4.724856 -0.843624,-4.724856 0.207883,0 0.492628,0.833618 0.632751,1.852483 0.168857,1.227738 0.556763,2.136173 1.150197,2.693673 l 0.895403,0.8412 0.208201,-0.99279 c 0.114511,-0.54603 0.296492,-1.418003 0.404389,-1.937719 0.107897,-0.519718 0.370734,-0.944941 0.584094,-0.944941 0.460428,0 0.0993,2.2544 -0.647912,4.04465 -0.606716,1.45363 -0.532103,3.1369 0.139065,3.1369 0.646774,0 0.612802,0.26161 -0.215053,1.65628 -0.891699,1.50221 -1.119796,5.14729 -0.32213,5.14729 0.30046,0 0.927364,-0.55617 1.393137,-1.23592 0.465772,-0.67976 1.4723,-1.68549 2.236681,-2.23495 1.709262,-1.22862 2.520262,-3.82344 2.141776,-6.85263 -0.177509,-1.42088 -0.0966,-2.166041 0.293105,-2.698997 0.478711,-0.654674 0.52922,-0.361503 0.45593,2.646857 -0.04535,1.8607 -0.209391,3.8083 -0.364595,4.32802 -0.22823,0.76435 0.009,0.61988 1.241266,-0.75595 0.837856,-0.9355 1.896903,-2.41973 2.353389,-3.29831 0.850027,-1.63591 2.232316,-3.172138 2.232316,-2.48089 0,0.212071 -0.362056,0.84588 -0.804598,1.40845 -1.145857,1.45674 -0.502311,1.97076 1.62478,1.29778 1.256056,-0.39739 1.812449,-0.84719 2.392627,-1.9342 0.415766,-0.77901 0.867595,-1.416846 1.004041,-1.417407 0.327342,-0.0013 -0.06519,1.568237 -0.545545,2.181477 -0.636296,0.81231 0.0717,1.02602 1.196949,0.36131 1.627981,-0.96167 3.069246,-1.445449 3.069246,-1.03023 0,1.00904 -4.788852,2.59451 -8.357976,2.76712 -1.175491,0.0568 -1.63359,0.38689 -3.293745,2.37302 -1.060582,1.26885 -2.848901,2.94102 -3.974041,3.71593 -1.125141,0.77492 -2.237211,1.8292 -2.471235,2.34286 -0.23405,0.51365 -1.008459,1.17748 -1.720929,1.47517 -0.90297,0.37728 -1.437587,0.93443 -1.764692,1.83902 -0.258101,0.71378 -0.847857,1.47026 -1.31056,1.68108 -1.072701,0.48875 -3.572272,5.10859 -3.13616,5.79637 0.173461,0.27353 0.317977,1.22022 0.321178,2.10374 0.0032,0.89627 0.186531,1.6064 0.414629,1.6064 0.224869,0 1.117838,-0.57256 1.984375,-1.27234 0.866537,-0.69979 1.773158,-1.20087 2.014722,-1.11352 0.241565,0.0874 0.921914,-0.70064 1.511909,-1.75109 0.589994,-1.05045 1.200282,-1.91008 1.356175,-1.91029 0.416533,-5.3e-4 0.363643,0.21531 -0.505831,2.06504 -0.593169,1.26192 -1.195308,1.87575 -2.423054,2.4701 -0.898578,0.43498 -1.728655,1.0382 -1.844648,1.34048 -0.11602,0.30227 -0.471382,0.54959 -0.789729,0.54959 -0.99314,0 -2.090737,1.43411 -2.090737,2.73169 0,1.52102 1.152684,7.16408 1.558105,7.62787 0.172878,0.19779 1.341755,-0.16966 2.758757,-0.86725 2.24192,-1.10369 2.478908,-1.33396 2.687188,-2.61105 0.478128,-2.93147 0.62476,-3.47768 0.995018,-3.70652 0.25109,-0.15518 0.289481,0.49991 0.112369,1.91749 l -0.269029,2.15319 1.464945,-0.75191 c 0.805736,-0.41356 1.775937,-1.28465 2.156037,-1.93577 0.617723,-1.05822 3.182276,-3.04583 3.929936,-3.04583 0.253312,0 -1.093814,1.46651 -4.111493,4.47581 -1.198192,1.19486 -3.126105,2.48213 -5.524817,3.68894 -1.095349,0.55106 -2.083383,1.15058 -2.195672,1.33228 -0.112315,0.18169 -0.576844,0.33295 -1.032324,0.33614 -1.459574,0.0102 -1.775196,0.51902 -1.90463,3.07051 -0.06866,1.35332 -0.4073,3.02684 -0.752581,3.71896 -0.345281,0.69211 -0.627777,1.69174 -0.627777,2.22139 0,0.93622 0.04059,0.9208 1.458066,-0.5544 0.809281,-0.84222 1.736804,-2.34773 2.084467,-3.38343 0.664686,-1.98015 1.355751,-3.28275 1.365382,-2.57364 0.0032,0.23447 -0.249343,1.03693 -0.561181,1.78325 -0.311838,0.74631 -0.566976,1.46827 -0.566976,1.60434 0,0.13608 0.255138,0.0357 0.566976,-0.22313 0.872464,-0.72407 0.745358,0.47735 -0.134752,1.27384 -0.431721,0.3907 -0.637752,0.96972 -0.535464,1.50484 0.108691,0.56857 -0.27006,1.49289 -1.093655,2.66902 -2.0447,2.91987 -2.579238,3.7907 -2.572465,4.19069 0.0034,0.20789 0.339037,-0.0472 0.74557,-0.56696 0.843782,-1.07871 1.03378,-0.56486 0.220477,0.59628 -0.584703,0.83477 -0.751258,4.45646 -0.188992,4.10896 0.19058,-0.11778 0.346472,-0.0482 0.346472,0.15465 0,0.20283 -0.212593,0.468 -0.472466,0.58927 -0.366263,0.17092 -0.369306,0.26903 -0.01349,0.43642 0.347424,0.16352 0.354647,0.3828 0.02969,0.90314 -0.344302,0.5513 -0.227542,1.09929 0.590471,2.77121 0.560784,1.14622 1.241504,2.16918 1.512728,2.27325 0.603012,0.23139 4.118108,-0.92264 4.974088,-1.63304 0.479001,-0.39753 0.868891,-0.42215 1.702461,-0.10752 1.283891,0.48462 5.311219,0.0902 8.118634,-0.79504 2.157915,-0.68046 2.778918,-0.758 2.248958,-0.28079 -1.358106,1.22295 -9.534049,2.42168 -10.582486,1.55156 -0.99113,-0.82256 -1.499156,0.11446 -0.810499,1.49492 0.319882,0.64124 0.42037,1.16589 0.223256,1.16589 -0.197088,0 -0.520012,-0.42522 -0.71763,-0.94493 -0.398039,-1.04695 -1.030552,-1.19125 -2.027184,-0.4625 -1.11289,0.81376 -0.382535,1.72229 1.588214,1.97563 0.969037,0.12457 2.076106,0.39965 2.460149,0.61129 0.923925,0.50915 1.188323,0.19412 0.453681,-0.54052 -0.682651,-0.68266 -0.744352,-1.01694 -0.187695,-1.01694 0.218493,0 0.64,0.58098 0.936704,1.29108 0.391372,0.9367 0.851747,1.35967 1.677273,1.54098 1.25177,0.27494 1.929686,0.9477 0.954961,0.9477 -0.337767,0 -0.968269,-0.18953 -1.401128,-0.42119 -0.743558,-0.39793 -0.772133,-0.35099 -0.517736,0.85045 0.148087,0.6994 0.340703,1.86695 0.428016,2.59455 l 0.15875,1.32292 -0.365734,-1.13393 c -0.201162,-0.62366 -0.534775,-1.81781 -0.741336,-2.65365 -0.435795,-1.76341 -1.627187,-2.61922 -4.078393,-2.92962 -0.883523,-0.11189 -1.606391,-0.12858 -1.606391,-0.0371 0,0.0915 0.278183,0.59087 0.618172,1.10976 0.33999,0.51889 0.529485,1.03212 0.421085,1.14051 -0.1084,0.10839 -0.562134,-0.39362 -1.008354,-1.11559 -0.870214,-1.40803 -3.019425,-2.88483 -4.198382,-2.88483 -0.899874,0 -0.604784,1.00791 0.387298,1.32279 0.377137,0.1197 0.955357,0.89157 1.284948,1.71528 0.495062,1.23728 0.780468,1.49789 1.64174,1.49907 0.88818,0.001 1.150911,0.26692 1.775037,1.79538 0.402934,0.98669 1.190122,2.22555 1.749345,2.75304 1.056773,0.99681 2.37244,3.54347 2.830936,5.47964 0.388699,1.64144 -0.330782,0.72466 -1.125061,-1.43357 -0.870585,-2.36562 -3.139996,-5.146 -3.479033,-4.26242 -0.131339,0.34221 -0.13327,1.39189 -0.0042,2.33263 0.128984,0.94101 0.06014,2.03613 -0.153062,2.43448 -0.289983,0.54185 -0.146552,1.51395 0.570019,3.86322 1.06209,3.48208 1.094396,3.66713 0.639894,3.66713 -0.174677,0 -0.540623,-0.92961 -0.81317,-2.0658 -0.54446,-2.26954 -0.976233,-2.38866 -1.35427,-0.37361 -0.135572,0.72261 -0.422089,1.42237 -0.636719,1.55502 -0.429843,0.26565 -0.186347,-1.01039 0.531256,-2.78421 0.234977,-0.58085 0.463048,-2.67195 0.50681,-4.64688 0.04376,-1.97492 0.18661,-3.93095 0.31742,-4.34672 0.364676,-1.15895 -0.559038,-3.4399 -1.332203,-3.28967 -1.045157,0.20307 -2.193184,-0.62975 -2.193184,-1.59104 0,-0.48695 -0.281729,-1.1188 -0.626057,-1.40411 -0.575972,-0.47724 -0.604044,-0.32216 -0.350811,1.93809 0.170444,1.52148 0.535622,2.74465 0.959194,3.2128 1.122653,1.24085 1.770485,6.52488 0.905959,7.38941 -0.223017,0.22301 -0.351181,-0.52673 -0.342688,-2.00468 0.01587,-2.74922 -0.297894,-4.28712 -1.049893,-5.14761 -0.545915,-0.62467 -0.814044,-1.68384 -1.328129,-5.24645 -0.279268,-1.9352 -0.905748,-3.12914 -1.303893,-2.48493 -0.263869,0.42694 0.305858,4.96141 1.036584,8.25007 0.734722,3.3067 0.735225,4.42035 0.0037,7.57524 -0.341101,1.47086 -0.488871,3.17162 -0.355018,4.0867 0.146949,1.00473 0.01746,2.16107 -0.36068,3.22129 -0.679265,1.90444 -0.821029,8.17499 -0.19357,8.56278 0.272151,0.1682 0.261118,0.40785 -0.03519,0.76488 -0.237331,0.28596 -0.392827,1.24883 -0.345572,2.13971 0.17399,3.27924 -0.02487,8.23436 -0.330333,8.23436 -0.173117,0 -0.27387,-4.12466 -0.22389,-9.16592 z m -4.215103,-31.2214 c 0.306546,-0.59279 0.991287,-1.36211 1.521618,-1.70961 1.381787,-0.90538 1.194329,-1.54644 -0.213545,-0.73024 -1.093787,0.63411 -2.979923,2.70376 -2.979923,3.26985 0,0.69721 1.186789,0.10803 1.67185,-0.83 z m 10.423392,-1.94601 c 0,-0.20789 -0.265192,-0.37798 -0.58928,-0.37798 -0.324088,0 -0.484161,0.17009 -0.355679,0.37798 0.128481,0.20789 0.393673,0.37798 0.58928,0.37798 0.195606,0 0.355679,-0.17009 0.355679,-0.37798 z m -7.579333,-6.4946 c -0.189733,-0.6616 -0.518054,-1.37598 -0.729562,-1.5875 -0.211508,-0.21151 -0.384572,-0.69073 -0.384572,-1.06492 0,-1.43176 -0.598488,-0.60092 -0.658919,0.91474 -0.06466,1.62128 0.669396,2.94061 1.636051,2.94061 0.362003,0 0.396108,-0.29952 0.137002,-1.20293 z m 5.344318,-10.93018 c 0.783035,-0.90284 0.927206,-1.68125 0.37465,-2.02275 -0.539564,-0.33346 -2.691818,3.08987 -2.40784,3.82987 0.21545,0.56142 0.303874,0.54208 0.776605,-0.16991 0.293423,-0.44191 0.85889,-1.17866 1.256585,-1.63721 z m -3.067685,-18.01049 c -0.01614,-0.77957 0.124487,-2.35032 0.312447,-3.49055 0.385762,-2.33991 -0.156713,-4.23511 -1.403165,-4.90219 -0.398753,-0.2134 -1.00367,-1.22698 -1.344242,-2.2524 -0.661458,-1.99147 -1.031557,-2.43541 -2.373207,-2.84672 -0.745251,-0.22847 -0.85045,-0.12625 -0.85045,0.82644 0,0.59794 -0.249714,1.41732 -0.554937,1.82086 -1.032748,1.36541 -0.365469,4.97687 1.138105,6.15957 0.454369,0.3574 1.114928,1.20833 1.467935,1.89095 0.524325,1.01394 0.741283,1.15858 1.185228,0.79013 0.434948,-0.36096 0.543427,-0.32751 0.543427,0.16755 0,0.52857 1.503389,3.2355 1.804511,3.24909 0.05699,0.003 0.09046,-0.63315 0.07435,-1.41273 z"
       id="path4632"
       inkscape:connector-curvature="0" />
    <path
       style="opacity:1;fill:#ffffff;fill-opacity:1;stroke:#000000;stroke-width:0;stroke-miterlimit:4;stroke-dasharray:none;stroke-opacity:1"
       d="m 144.93553,123.69312 c -0.55037,-1.30138 -0.60918,-4.82233 -0.15315,-9.16822 l 0.33187,-3.16266 -0.814,0.43563 c -0.95988,0.51372 -1.09202,0.12871 -0.18376,-0.53542 0.34664,-0.25347 0.67475,-0.86754 0.72915,-1.36459 0.0544,-0.49706 0.20688,-1.83924 0.33884,-2.98261 0.30286,-2.62391 0.30075,-2.51139 0.0852,-4.53572 -0.2527,-2.37347 -0.66509,-3.779761 -1.1084,-3.779761 -0.77948,0 -2.79114,2.064871 -3.79335,3.893681 -1.11494,2.03452 -1.30102,3.25307 -0.60331,3.95078 0.28489,0.28488 0.40966,1.81849 0.3598,4.42232 -0.0979,5.11171 -0.16552,5.87608 -0.52007,5.87608 -0.16011,0 -0.19003,-1.57333 -0.0665,-3.49628 0.13431,-2.09057 0.0533,-4.25613 -0.20158,-5.38616 -0.23441,-1.03944 -0.48798,-2.23006 -0.56347,-2.64584 -0.0755,-0.41577 -0.15145,-0.83299 -0.16877,-0.92715 -0.0173,-0.0942 -0.66933,0.42413 -1.44891,1.15175 -0.77957,0.72763 -2.06048,1.61234 -2.84647,1.96603 -0.78598,0.35369 -1.52706,0.89846 -1.64683,1.2106 -0.11978,0.31214 -0.37566,0.56752 -0.56862,0.56752 -0.81194,0 0.5764,-1.57011 2.05075,-2.31924 0.87657,-0.44539 2.0938,-1.29639 2.70495,-1.89111 0.61115,-0.59472 1.33117,-1.08131 1.60003,-1.08131 0.26886,0 0.90601,-0.82324 1.41588,-1.82941 0.88389,-1.74429 3.2372,-4.218212 4.01254,-4.218212 0.20065,0 0.36483,-0.39909 0.36483,-0.886868 0,-0.487778 0.23776,-1.380746 0.52837,-1.984375 0.2906,-0.603628 0.65338,-1.52273 0.80618,-2.042448 0.26038,-0.885648 0.23316,-0.9091 -0.43388,-0.373795 -1.10283,0.885047 -3.2003,1.979919 -3.40357,1.776653 -0.10049,-0.100484 0.46408,-0.577718 1.25459,-1.060516 1.88783,-1.152975 2.3557,-1.793941 2.37022,-3.247052 0.007,-0.662101 0.18686,-1.663702 0.40057,-2.225783 0.2137,-0.562081 0.29203,-1.118484 0.17406,-1.236451 -0.41026,-0.410268 -2.89233,1.232437 -3.42835,2.268977 -0.2967,0.573759 -0.9799,1.483651 -1.51823,2.021975 -0.53833,0.538324 -1.13152,1.531987 -1.31822,2.208133 -0.18669,0.67615 -1.19123,2.113084 -2.23232,3.193192 -1.04108,1.080104 -1.89288,2.025849 -1.89288,2.101652 0,0.07581 0.46775,0.07055 1.03944,-0.01167 0.89556,-0.12882 0.84914,-0.06601 -0.33542,0.453845 -1.12986,0.495842 -1.45935,0.905158 -1.84903,2.296943 -0.26079,0.93147 -0.82247,1.93754 -1.24817,2.23571 -0.92788,0.64991 -1.41117,0.37634 -0.52086,-0.29483 0.66604,-0.5021 1.94267,-3.266821 1.64564,-3.563858 -0.0983,-0.09832 -0.52232,0.0051 -0.94223,0.229844 -0.41991,0.224723 -1.20873,0.408594 -1.75293,0.408594 -0.75956,0 -1.08129,0.26345 -1.38474,1.13392 -0.21741,0.62367 -0.54453,1.13393 -0.72694,1.13393 -0.1824,0 -0.161,-0.44881 0.0476,-0.99736 0.20856,-0.54855 0.33192,-1.03577 0.27413,-1.08273 -0.74396,-0.604466 -1.74721,-0.851272 -2.08545,-0.513031 -0.26654,0.266531 -0.62474,0.272511 -1.09965,0.0184 -0.38739,-0.207329 -1.51123,-0.286013 -2.49742,-0.174854 -1.07643,0.121314 -1.79308,0.05126 -1.79308,-0.175278 0,-0.522031 3.02418,-0.881275 3.82242,-0.454068 0.35827,0.191741 1.15497,0.24791 1.77044,0.124817 0.64662,-0.129325 1.22758,-0.04817 1.37616,0.192249 0.39479,0.638784 2.79653,0.493964 4.06989,-0.245403 1.85962,-1.07977 6.10173,-5.541899 5.99838,-6.309471 -0.0868,-0.644898 0.0595,-0.948939 0.93746,-1.947215 1.88517,-2.143601 1.85528,-2.224783 -0.84855,-2.30434 -1.34931,-0.0397 -2.86622,0.08482 -3.37092,0.276706 -0.72967,0.277418 -1.0829,0.183634 -1.72433,-0.457798 -0.71605,-0.71605 -0.85509,-0.7405 -1.23742,-0.217625 -0.32418,0.443336 -0.60204,0.493191 -1.12321,0.201538 -0.6757,-0.378147 -3.10522,-0.216426 -4.58473,0.305187 -0.68761,0.242416 -0.69612,0.21495 -0.12265,-0.395894 0.41056,-0.437319 1.26194,-0.675986 2.55093,-0.715118 1.0974,-0.0333 1.93489,-0.235493 1.93512,-0.467148 2.3e-4,-0.224629 -0.41867,-1.236203 -0.93088,-2.247943 -1.09834,-2.169512 -1.62857,-4.183316 -0.99901,-3.794223 0.25413,0.15706 0.4184,-0.04696 0.4184,-0.519676 0,-0.428043 -0.21261,-0.783431 -0.47247,-0.789754 -0.27535,-0.0067 -0.20832,-0.165619 0.16063,-0.380892 0.34821,-0.203168 0.82088,-0.938339 1.05037,-1.633709 0.24294,-0.736111 0.81955,-1.447607 1.38019,-1.703052 0.82455,-0.37569 0.92681,-0.603165 0.71161,-1.582954 -0.16873,-0.768194 -0.054,-1.445334 0.34906,-2.060499 0.3302,-0.503954 0.60037,-0.987925 0.60037,-1.075491 0,-0.08756 -1.15423,-0.844923 -2.56496,-1.68302 -2.35142,-1.396955 -5.09652,-3.932237 -6.50759,-6.010193 -0.69844,-1.028533 -2.64471,-1.599573 -2.64471,-0.775965 0,0.593075 -0.85553,0.62706 -2.92932,0.116362 -0.67564,-0.166384 -1.22843,-0.451345 -1.22843,-0.633246 0,-0.429734 0.18611,-0.418561 1.97991,0.118877 1.28842,0.386019 1.54841,0.364265 1.83835,-0.153837 0.22074,-0.39443 0.62684,-0.527828 1.17248,-0.38514 l 0.83478,0.218299 -0.81504,-1.292886 c -0.91533,-1.451986 -2.31406,-1.856433 -3.23506,-0.935432 -0.32312,0.323117 -0.91899,0.587486 -1.32416,0.587486 -0.40517,0 -0.94841,0.255133 -1.20721,0.566965 -0.25879,0.31183 -0.74737,0.567775 -1.08571,0.56877 -0.69371,0.0021 -3.45,2.395246 -3.45,2.99553 0,0.214527 -0.42392,0.496443 -0.94204,0.626483 -0.76971,0.193186 -0.90051,0.401937 -0.71498,1.14113 0.12519,0.498774 0.0589,0.904692 -0.1478,0.904692 -0.56834,0 -0.86515,-1.594353 -0.40094,-2.153692 0.22464,-0.270677 0.72779,-0.492141 1.11811,-0.492141 0.39032,0 0.70967,-0.255133 0.70967,-0.566963 0,-0.724299 -1.1507,-0.730882 -2.10112,-0.01201 -0.83413,0.630907 -2.81257,0.772301 -2.81257,0.20101 0,-0.380744 0.52133,-0.52492 1.44545,-0.399751 0.27528,0.03729 0.70051,-0.08968 0.94494,-0.282147 0.24444,-0.192466 1.18629,-0.444315 2.09301,-0.559662 1.05058,-0.133649 2.01781,-0.563481 2.66651,-1.184974 0.55987,-0.53639 1.29625,-0.975251 1.63641,-0.975251 0.34016,0 0.72359,-0.17009 0.85207,-0.377976 0.12848,-0.207888 0.63059,-0.377976 1.1158,-0.377976 0.48521,0 0.9801,-0.255135 1.09976,-0.566965 0.11966,-0.31183 0.64813,-0.566965 1.17437,-0.566965 1.21383,0 1.21699,-0.645033 0.0118,-2.420885 -0.51971,-0.765847 -0.94494,-1.516229 -0.94494,-1.667517 0,-0.151289 -0.52987,-0.91789 -1.17748,-1.703557 -0.64761,-0.785665 -1.0612,-1.544757 -0.91909,-1.68687 0.29053,-0.290528 1.52673,1.131605 2.22977,2.565138 1.34861,2.749889 2.27404,3.775692 4.4083,4.886452 2.63356,1.370624 2.76433,1.392243 2.45106,0.405215 -0.36595,-1.153004 0.0945,-0.901115 0.7816,0.427567 0.33661,0.650933 1.95682,2.557533 3.60048,4.236891 1.64365,1.679358 2.98846,3.169235 2.98846,3.310843 0,0.141605 1.09334,0.91391 2.42964,1.716233 1.3363,0.80232 2.70664,1.92651 3.04518,2.498198 0.39748,0.671216 0.93481,1.039434 1.5168,1.039434 1.60816,0 1.41745,-0.731316 -0.72836,-2.793095 -1.15804,-1.112692 -2.10552,-2.294231 -2.10552,-2.625645 0,-0.931387 -2.2217,-3.2687 -2.8704,-3.019769 -0.57741,0.221572 -2.04329,-0.848032 -2.04329,-1.490922 0,-0.199578 0.41923,-0.08817 0.93164,0.247568 0.5124,0.33574 1.15939,0.610436 1.43775,0.610436 0.68753,0 2.77588,2.248149 3.10688,3.344606 0.1474,0.488267 0.57012,1.189887 0.93939,1.559152 0.6432,0.643205 0.67139,0.633704 0.67139,-0.226303 0,-0.493731 -0.15158,-0.897694 -0.33685,-0.897694 -0.18526,0 -0.62072,-0.595313 -0.9677,-1.322917 -0.34697,-0.727604 -0.85448,-1.322917 -1.12781,-1.322917 -0.27333,0 -0.49696,-0.146894 -0.49696,-0.326432 0,-0.614095 -1.99192,-2.319401 -2.70924,-2.319401 -0.39394,0 -0.80913,-0.241982 -0.92262,-0.537739 -0.11349,-0.295757 -0.46883,-0.638463 -0.78964,-0.761569 -0.43867,-0.168336 -0.53392,-0.03501 -0.38414,0.537739 0.10954,0.418865 0.045,0.761569 -0.14343,0.761569 -0.18843,0 -0.34259,-0.199218 -0.34259,-0.442706 0,-0.243491 -0.29766,-0.7826 -0.66146,-1.19802 -0.62996,-0.719347 -0.62996,-0.743826 0,-0.514096 0.70449,0.256908 0.87661,-0.105122 0.33228,-0.698897 -0.51692,-0.563875 -0.90444,-2.54417 -0.44193,-2.258322 0.21622,0.133631 0.39313,0.552596 0.39313,0.931035 0,0.828177 2.62775,3.595317 3.47545,3.659814 0.49674,0.03779 0.54274,-0.159364 0.26395,-1.131435 -0.43887,-1.530276 -0.43554,-1.545018 0.22519,-0.996659 0.30954,0.256897 0.47076,0.616019 0.35825,0.798047 -0.32433,0.524785 0.99711,2.986275 1.93204,3.598865 0.46762,0.306395 1.05814,1.059061 1.31228,1.672587 0.54504,1.315858 1.36299,1.479971 1.32105,0.265057 -0.0164,-0.475832 -0.88728,-1.763289 -1.97699,-2.922765 -1.0712,-1.139774 -1.88545,-2.134502 -1.80945,-2.210509 0.26715,-0.267149 1.98817,1.263775 2.58006,2.295076 0.69919,1.218271 1.40956,1.389769 1.11662,0.269573 -0.12935,-0.494654 0.0536,-0.9603 0.50786,-1.292447 0.51189,-0.374301 0.70496,-0.976053 0.6918,-2.156079 -0.0155,-1.38856 -0.25918,-1.894864 -1.6064,-3.337592 -0.87348,-0.9354 -1.58814,-1.797733 -1.58814,-1.9163 0,-0.46278 -2.1198,-2.533769 -2.83482,-2.769537 -1.2897,-0.425259 -2.4085,-1.591773 -2.61785,-2.729486 l -0.20044,-1.089309 0.44268,1.039435 c 0.24347,0.571687 0.58317,1.039434 0.75488,1.039434 0.17172,0 0.21017,-0.467747 0.0855,-1.039434 -0.17462,-0.800389 -0.13414,-0.909045 0.17599,-0.472472 0.22152,0.31183 0.40537,0.943681 0.40855,1.404112 0.003,0.460433 0.34597,1.019207 0.76174,1.241721 0.41578,0.222517 0.75595,0.292719 0.75595,0.156006 0,-0.136712 0.25514,-0.03683 0.56697,0.22197 0.84091,0.697894 0.69207,0.179184 -0.46308,-1.613908 -0.56652,-0.879388 -1.31747,-2.223 -1.66876,-2.985804 -0.35129,-0.762802 -0.99335,-1.576711 -1.4268,-1.808684 -0.43345,-0.231974 -0.78809,-0.662469 -0.78809,-0.956657 0,-0.294185 -0.29765,-0.702831 -0.66145,-0.9081 -0.48512,-0.273717 -0.54977,-0.486145 -0.24253,-0.796795 0.30806,-0.31147 0.60716,-0.0426 1.13009,1.015894 l 0.71116,1.439471 0.12654,-1.071629 c 0.0833,-0.705313 -0.1092,-1.25032 -0.56312,-1.594379 -0.37932,-0.28751 -0.51959,-0.525553 -0.3117,-0.528979 0.83014,-0.01368 1.41709,0.707763 1.41122,1.73459 -0.008,1.382366 2.76462,6.691709 4.29512,8.225081 0.64384,0.645049 1.47036,1.639101 1.83673,2.209006 0.36636,0.569904 0.81759,0.942567 1.00274,0.82814 0.18515,-0.114429 0.33663,-0.02259 0.33663,0.204095 0,0.226682 0.29766,0.521703 0.66146,0.655603 1.37996,0.507905 2.41666,2.090907 2.76602,4.223596 0.19135,1.168094 0.34889,2.251372 0.35009,2.407288 0.001,0.155914 0.34237,0.283483 0.75815,0.283483 0.5284,0 0.75956,0.255989 0.76797,0.850445 0.007,0.467746 0.26174,1.180613 0.56696,1.584147 0.30522,0.403535 0.55495,1.142109 0.55495,1.641274 0,0.499166 0.33785,1.337083 0.75077,1.862034 0.62164,0.790276 0.79019,0.851771 0.97986,0.35749 0.126,-0.328335 0.53458,-0.693934 0.90798,-0.812443 0.99564,-0.316005 2.55681,-1.865374 2.70988,-2.689387 0.073,-0.393081 0.68541,-0.958 1.36088,-1.255376 0.67547,-0.297373 1.22813,-0.769329 1.22813,-1.04879 0,-0.556821 1.75591,-1.364366 2.4196,-1.112779 0.36986,0.1402 -0.13399,0.408882 -1.56916,0.836768 -0.80038,0.238633 -0.52268,1.298139 0.43576,1.662536 1.01522,0.385985 1.56745,1.066067 1.18014,1.45337 -0.14035,0.140353 -0.41714,-0.03421 -0.61509,-0.387924 -0.7988,-1.427388 -4.11911,-1.173605 -4.11911,0.314838 0,0.637754 -1.49898,2.409028 -2.05254,2.425382 -0.22237,0.0066 -0.85852,0.411996 -1.41367,0.900949 -0.87562,0.771199 -0.98586,1.107702 -0.83192,2.539394 0.0976,0.907717 0.36143,2.273107 0.5863,3.034202 0.48106,1.628177 0.15189,3.340891 -0.6421,3.340891 -0.3212,0 -0.55976,0.347147 -0.55976,0.814536 0,0.747199 0.0547,0.766048 0.66146,0.22801 0.3638,-0.322591 0.99718,-0.648079 1.4075,-0.72331 0.54537,-0.09999 0.81887,-0.563298 1.01673,-1.722324 0.34362,-2.012881 0.80289,-2.857521 2.63387,-4.843896 1.35132,-1.466004 1.44186,-1.694247 1.06514,-2.685098 -0.22645,-0.595596 -0.69754,-1.40971 -1.04687,-1.809144 -0.59673,-0.68231 -0.59514,-0.71165 0.0263,-0.485024 0.3638,0.132668 0.66146,0.06643 0.66146,-0.147203 0,-0.213633 0.15926,-0.289989 0.35392,-0.169685 0.19466,0.120306 0.34996,0.513045 0.34512,0.872754 -0.005,0.359709 0.10332,1.249328 0.24038,1.976932 0.22029,1.169512 0.0885,1.491719 -1.13635,2.77861 -1.42331,1.495374 -2.45933,3.483898 -2.43532,4.67428 0.0111,0.551182 0.16568,0.491273 0.85045,-0.329666 0.46027,-0.551794 1.4329,-1.248534 2.1614,-1.54831 1.10987,-0.456708 1.3327,-0.744477 1.37484,-1.775481 0.0457,-1.117931 1.26936,-3.058337 1.26936,-2.012852 0,0.240165 -0.17008,0.541784 -0.37797,0.670266 -0.20789,0.128479 -0.37798,0.414478 -0.37798,0.63555 0,0.253469 0.20944,0.22813 0.56697,-0.06859 0.31627,-0.262478 0.56696,-0.303406 0.56696,-0.09256 0,0.207888 -0.25513,0.589719 -0.56696,0.848516 -0.31183,0.258794 -0.56697,0.619799 -0.56697,0.802232 0,0.522542 0.81881,0.387131 1.28125,-0.211886 0.51927,-0.672626 3.98339,-1.319959 4.97859,-0.930338 0.89854,0.351779 0.83631,0.372104 -1.61039,0.525978 -3.22697,0.202949 -3.65715,1.050375 -0.77321,1.523167 0.88243,0.144663 1.88002,0.506044 2.21686,0.803068 0.49294,0.434655 0.80411,0.452718 1.59455,0.09257 0.54016,-0.24611 0.89619,-0.586488 0.79118,-0.756393 -0.10501,-0.169905 0.13723,-0.637077 0.53832,-1.038159 0.66384,-0.663848 0.67582,-0.782661 0.13354,-1.324938 -0.54227,-0.542277 -0.53339,-0.664541 0.0991,-1.363414 0.38213,-0.422246 0.86487,-0.767717 1.07276,-0.767717 0.20788,0 0.0849,0.323884 -0.27339,0.719743 -0.55696,0.615431 -0.57914,0.837594 -0.15308,1.532874 0.43025,0.702104 0.40797,0.864439 -0.16317,1.188918 -1.19752,0.680337 -0.789,1.472153 0.75953,1.472153 1.01163,0 1.55698,-0.217771 1.89308,-0.755952 0.25965,-0.415774 0.66711,-0.755952 0.90545,-0.755952 0.24224,0 0.13164,0.333399 -0.25077,0.755952 -0.37627,0.415774 -0.49732,0.755952 -0.269,0.755952 0.22832,0 0.67646,-0.37311 0.99587,-0.829136 0.52681,-0.752125 0.5205,-0.895717 -0.068,-1.546042 -0.56959,-0.629383 -0.58019,-0.770422 -0.0868,-1.15524 0.30907,-0.241083 0.60178,-0.966488 0.65046,-1.612011 0.113,-1.498497 1.06217,-3.379541 1.41623,-2.806663 0.14368,0.232476 0.0419,0.686957 -0.22616,1.009955 -0.26806,0.322998 -0.53729,0.953383 -0.59827,1.400855 -0.1052,0.771884 -0.0726,0.765153 0.63543,-0.131361 0.89133,-1.128538 1.0243,-0.541078 0.15761,0.696294 -0.33303,0.475474 -0.47984,0.981064 -0.32623,1.123537 0.15361,0.14247 0.35746,0.03971 0.45301,-0.228362 0.27251,-0.764614 2.49868,-2.721708 3.09811,-2.723647 0.29728,-0.0011 -0.17046,0.606816 -1.03943,1.350621 -1.6248,1.390761 -2.06171,2.210562 -0.95097,1.784331 0.42291,-0.162287 0.53943,-0.09649 0.35567,0.200851 -0.37786,0.611383 0.007,0.552945 1.10753,-0.168225 0.5124,-0.33574 0.93164,-0.434959 0.93164,-0.220488 0,0.214474 -0.21261,0.47574 -0.47247,0.580597 -0.25986,0.104854 0.25041,0.204073 1.13393,0.220485 0.88352,0.0164 1.6064,0.206351 1.6064,0.42209 0,0.239069 -0.61941,0.317587 -1.58616,0.201059 -1.06041,-0.127815 -1.78079,-0.01572 -2.17336,0.338228 -0.32297,0.291176 -1.29451,1.17871 -2.15898,1.972302 -2.02679,1.860587 -2.35712,2.101506 -3.7199,2.712942 l -1.13392,0.508759 2.07886,0.653481 c 2.34294,0.736487 5.12074,2.088021 5.47732,2.664982 0.34843,0.563771 0.0872,0.48266 -1.74675,-0.542354 -2.1862,-1.221893 -5.90354,-2.17301 -7.30388,-1.868768 -0.61405,0.133411 -1.43431,0.646663 -1.82282,1.140555 -0.47426,0.602933 -1.0943,0.897994 -1.88702,0.897994 -0.65305,0 -1.80849,0.435072 -2.58552,0.97356 -0.77267,0.535456 -1.63226,1.011381 -1.9102,1.057611 -0.27794,0.04623 -0.87687,0.288483 -1.33095,0.538343 -0.45408,0.249862 -1.06639,0.454295 -1.3607,0.454295 -0.97947,0 -3.67233,2.235411 -3.67233,3.048486 0,0.481111 0.16248,0.675471 0.42767,0.511578 0.55132,-0.340744 4.77278,1.742691 5.04029,2.487554 0.19954,0.555635 2.15498,1.597909 3.93428,2.097013 0.61306,0.171966 0.81523,0.118272 0.6375,-0.169307 -0.14399,-0.232992 0.0459,-0.530047 0.42514,-0.664911 1.16462,-0.414205 2.00833,-1.341683 2.00833,-2.207736 0,-0.455276 0.34018,-1.135631 0.75595,-1.511903 0.50396,-0.456078 0.75595,-1.164156 0.75595,-2.124152 0,-1.038164 0.20457,-1.5495 0.73302,-1.832322 0.48745,-0.260879 0.81148,-0.265337 0.96725,-0.01331 0.12883,0.208447 -0.0131,0.378997 -0.31534,0.378997 -0.36071,0 -0.59683,0.495546 -0.68709,1.442022 -0.11109,1.164857 -0.0158,1.433054 0.49573,1.395367 0.34829,-0.02567 0.90258,-0.270171 1.23175,-0.543362 0.41035,-0.340558 0.59849,-0.361071 0.59849,-0.06525 0,0.271481 0.35037,0.343519 0.94494,0.194291 0.58224,-0.146129 0.94495,-0.07636 0.94495,0.181787 0,0.230434 -0.3734,0.41896 -0.82977,0.41896 -0.978,0 -2.95,1.765409 -2.95,2.640954 0,0.335302 -0.2041,0.813748 -0.45357,1.063213 -0.68519,0.685194 1.58867,0.57159 2.51019,-0.125413 0.40354,-0.30522 1.08389,-0.546468 1.51191,-0.536106 0.78136,0.01889 -0.91301,0.971452 -3.28487,1.846683 -0.86628,0.319664 -2.24573,1.964243 -2.6501,3.159455 -0.0559,0.165153 -0.48596,0.329235 -0.95575,0.36462 -0.55263,0.04163 -0.78415,0.246753 -0.65586,0.581086 0.10906,0.284207 0.19829,0.761883 0.19829,1.061503 0,0.446167 0.18813,0.425111 1.03944,-0.116332 0.57169,-0.363606 1.17608,-0.878917 1.34309,-1.145141 0.22346,-0.356192 0.49844,-0.379804 1.04108,-0.08939 0.61594,0.329636 0.80941,0.236646 1.17442,-0.564467 0.24035,-0.527516 0.57979,-0.959118 0.75431,-0.959118 0.45356,0 0.39612,0.284279 -0.25966,1.285137 -0.56401,0.860785 -0.54491,0.88586 0.85045,1.11647 0.78507,0.129749 1.95943,0.237779 2.60967,0.240065 1.19997,0.0042 3.92042,0.959215 3.92042,1.376233 0,0.125402 -0.3827,0.113371 -0.85045,-0.02672 -1.21817,-0.364874 -5.22425,-0.985798 -6.29288,-0.975368 -0.4987,0.0049 -1.16107,0.219937 -1.47193,0.477933 -0.47979,0.398179 -0.52609,0.345794 -0.30633,-0.346594 0.26671,-0.840343 -0.40846,-1.642015 -0.85356,-1.013479 -0.13267,0.187352 -0.70897,0.638289 -1.28066,1.002081 -0.57169,0.363794 -1.03943,0.837647 -1.03943,1.05301 0,0.215365 0.12757,0.317772 0.28348,0.227573 0.15592,-0.0902 0.62366,-0.02714 1.03943,0.140115 0.64187,0.258215 0.65613,0.308124 0.0945,0.330677 -0.83203,0.03341 -0.9141,1.987787 -0.11695,2.784937 0.30613,0.30614 0.45308,0.89416 0.33565,1.34318 -0.15909,0.60837 0.0209,0.88603 0.75543,1.16529 0.53035,0.20164 1.1476,0.70916 1.37167,1.12783 0.22406,0.41866 1.06503,0.93829 1.86883,1.15473 0.8038,0.21644 1.67116,0.64622 1.92748,0.95507 0.25632,0.30884 1.12658,0.7394 1.93391,0.95679 0.80733,0.21739 1.46788,0.57026 1.46788,0.78414 0,0.21687 -0.33437,0.28275 -0.75596,0.14895 -0.43365,-0.13764 -0.75595,-0.0679 -0.75595,0.16351 0,0.72659 -1.60361,0.42322 -2.87039,-0.543 -0.73281,-0.55893 -1.33689,-0.79107 -1.4754,-0.56696 -0.43415,0.70247 -1.63322,0.38711 -2.3691,-0.62309 -0.80694,-1.10775 -1.60058,-0.93692 -1.60058,0.34452 0,0.63306 -0.0996,0.70968 -0.45728,0.35196 -0.35773,-0.35772 -0.31228,-0.70274 0.20872,-1.58473 l 0.66601,-1.12746 -2.13215,-2.08163 c -1.17267,-1.14491 -2.37218,-2.08164 -2.66556,-2.08164 -0.29339,0 -0.53343,-0.35587 -0.53343,-0.79083 0,-0.43496 -0.34018,-1.223301 -0.75596,-1.751869 -0.41577,-0.528568 -0.75595,-1.17906 -0.75595,-1.445532 0,-0.886497 -0.83323,-0.778592 -1.93497,0.250587 -0.59886,0.559419 -1.08884,1.191548 -1.08884,1.404731 0,0.213182 -0.27136,0.442593 -0.60302,0.509813 -0.51946,0.10527 -0.49327,0.26142 0.18899,1.12676 0.4356,0.55251 0.79201,1.23538 0.79201,1.5175 0,0.28212 0.33979,1.14693 0.7551,1.9218 0.78088,1.45695 1.30907,5.57251 0.71517,5.57251 -0.18499,0 -0.33634,-0.42635 -0.33634,-0.94743 0,-0.53953 -0.40684,-1.30119 -0.94494,-1.76906 -0.51972,-0.45189 -0.94599,-1.17365 -0.94727,-1.6039 -0.001,-0.43026 -0.25642,-1.26947 -0.56697,-1.86493 -0.31054,-0.59545 -0.56463,-1.37086 -0.56463,-1.72314 0,-0.35228 -0.24973,-0.97067 -0.55495,-1.3742 -0.30521,-0.40354 -0.56035,-1.041931 -0.56696,-1.418637 -0.0217,-1.236308 -1.237,-4.596688 -1.83693,-5.079206 -1.46276,-1.176494 -1.37715,0.320418 0.18698,3.269093 0.48509,0.914482 0.88198,1.987579 0.88198,2.38466 0,0.43164 0.16828,0.61796 0.41846,0.46333 0.28364,-0.17529 0.33356,0.009 0.15493,0.57175 -0.17604,0.55466 -0.0438,1.07315 0.39816,1.56155 0.36394,0.40215 0.57052,0.82237 0.45908,0.93382 -0.11146,0.11145 -0.63309,-0.30892 -1.1592,-0.93417 -0.98372,-1.16908 -1.35807,-1.0818 -1.90179,0.44342 -0.12969,0.3638 -0.562,0.66146 -0.9607,0.66146 -1.05488,0 -1.47805,2.98679 -0.61071,4.31051 0.58807,0.89752 0.87197,4.1929 0.40172,4.66314 -0.11946,0.11947 -0.0732,0.40295 0.1029,0.62996 0.47396,0.61114 0.7831,2.11365 0.43488,2.11365 -0.47072,0 -0.90568,-1.87651 -0.96373,-4.15774 -0.0854,-3.35547 -0.80658,-4.29935 -1.78558,-2.3369 -0.51496,1.03227 -0.54609,3.04336 -0.0771,4.98273 0.15719,0.65007 0.10611,0.825 -0.16371,0.56059 -0.21571,-0.2114 -0.47284,-1.20772 -0.57138,-2.21404 -0.0985,-1.00631 -0.25052,-1.90101 -0.33771,-1.98821 -0.38937,-0.38936 -0.59869,3.39444 -0.22629,4.0903 0.29621,0.55345 0.29009,1.24057 -0.0221,2.48026 -0.40614,1.61291 -0.37454,1.77446 0.53219,2.72089 0.53019,0.55339 0.96397,1.14012 0.96397,1.30384 0,0.16372 0.34018,0.73014 0.75595,1.25871 0.82968,1.05477 0.9608,1.61505 0.37798,1.61505 -0.20789,0 -0.37798,-0.24915 -0.37798,-0.55367 0,-0.30452 -0.34017,-0.73572 -0.75595,-0.95824 -0.41577,-0.22251 -0.75595,-0.72912 -0.75595,-1.12579 0,-0.39667 -0.31986,-0.94526 -0.71081,-1.21909 -0.39094,-0.27382 -0.8019,-0.83626 -0.91323,-1.24985 -0.11134,-0.4136 -0.14344,0.0984 -0.0713,1.13789 0.0721,1.03943 0.33265,2.45135 0.57897,3.13759 0.56138,1.564 0.16763,2.07976 -0.45814,0.6001 z m 0.807,-8.27341 c 0,-0.20788 -0.16487,-0.12284 -0.3664,0.18899 -0.20152,0.31183 -0.36639,0.73705 -0.36639,0.94494 0,0.20789 0.16487,0.12284 0.36639,-0.18899 0.20153,-0.31183 0.3664,-0.73705 0.3664,-0.94494 z m 1.22084,-7.09645 c 0.33829,-0.67046 0.70296,-1.72929 0.81037,-2.35295 0.10741,-0.62366 0.30603,-1.42009 0.44138,-1.76984 0.17845,-0.46112 -0.0837,-0.80644 -0.9536,-1.25629 -1.3676,-0.70722 -1.68281,-0.57881 -1.32746,0.5408 0.14544,0.45825 0.592,0.8001 1.07394,0.82211 0.75411,0.0344 0.74381,0.0604 -0.11996,0.30183 -0.7856,0.2196 -0.95695,0.51599 -1.01618,1.75771 -0.0392,0.82145 -0.18705,1.96375 -0.32859,2.53844 -0.35529,1.44257 0.59512,1.05319 1.4201,-0.58181 z m 24.7766,0.57325 c -0.57169,-0.35445 -1.03943,-0.77514 -1.03943,-0.93488 0,-0.15974 -0.44203,-0.29043 -0.98228,-0.29043 -0.61148,0 -1.39623,-0.44313 -2.07887,-1.1739 -1.01704,-1.08875 -1.09659,-1.11436 -1.09659,-0.35313 0,1.60112 0.71973,2.38472 1.96212,2.13624 0.81672,-0.16334 1.40614,-0.0152 2.09499,0.52669 0.52719,0.41469 1.23325,0.74945 1.56901,0.74392 0.40131,-0.007 0.25434,-0.23087 -0.42895,-0.65451 z m -15.4642,-3.56671 -0.48867,-0.8714 -0.13588,0.9022 c -0.0747,0.4962 0.0916,1.04355 0.36967,1.2163 0.70597,0.43866 0.83799,-0.2073 0.25488,-1.2471 z m -1.22419,-3.26419 c -0.54157,-0.54157 -0.56153,-0.47788 -0.22162,0.70733 0.20546,0.71637 0.39672,1.38866 0.42503,1.49398 0.0283,0.10532 0.12804,-0.21298 0.22161,-0.70733 0.0975,-0.51526 -0.0838,-1.15279 -0.42502,-1.49398 z m 9.42363,-0.40809 c -0.6537,-1.968099 -0.89765,-2.209171 -1.56265,-1.54418 -0.25419,0.2542 -0.77615,-0.182911 -1.5797,-1.32292 -1.17026,-1.660247 -2.34958,-2.244791 -2.34958,-1.164593 0,0.295884 0.42522,1.043316 0.94494,1.660965 0.51971,0.617647 0.94494,1.396098 0.94494,1.729898 0,0.33379 0.22383,0.60689 0.49741,0.60689 0.27358,0 1.04726,0.62105 1.71929,1.38012 1.66307,1.87847 2.26282,1.29567 1.38535,-1.34618 z m -14.18539,0.9142 c 0,-0.31007 0.34018,-0.7762 0.75596,-1.03586 0.82968,-0.51814 0.9404,-1.08894 0.40556,-2.090773 -0.1927,-0.360982 -0.4425,-0.953985 -0.5551,-1.317787 -0.37568,-1.213874 -0.98439,-0.680656 -0.98439,0.862306 0,1.005783 -0.19274,1.597734 -0.56697,1.741334 -0.32318,0.12402 -0.56696,0.68774 -0.56696,1.31106 0,0.8415 0.1742,1.09349 0.75595,1.09349 0.41807,0 0.75595,-0.25199 0.75595,-0.56377 z m -2.16158,-0.58259 c -0.11915,-0.45563 0.086,-1.08543 0.50397,-1.5473 0.54848,-0.606071 0.71877,-1.44209 0.76734,-3.767243 0.0343,-1.643578 -0.0915,-3.083446 -0.2796,-3.199709 -0.18811,-0.116266 -0.34203,-0.03126 -0.34203,0.188894 0,0.220157 -0.18829,0.400285 -0.41842,0.400285 -0.23012,0 -0.3215,-0.252542 -0.20306,-0.561202 0.12698,-0.330891 -0.0923,-0.72585 -0.53434,-0.962417 -0.84383,-0.451607 -1.49001,-0.201647 -1.49001,0.576379 0,0.286025 -0.19728,0.998871 -0.4384,1.584092 -0.59567,1.445765 -0.80529,4.542367 -0.32748,4.837671 0.21335,0.131852 0.3879,0.61552 0.3879,1.07482 0,0.50279 0.41361,1.09153 1.03944,1.47954 1.35643,0.841 1.57727,0.82382 1.33469,-0.10381 z m 7.07527,-2.809098 c 0,-0.304517 0.34018,-0.735724 0.75596,-0.958238 1.13928,-0.609725 0.92748,-1.022679 -0.95065,-1.853462 -1.30909,-0.579075 -1.75654,-1.004647 -1.92104,-1.827115 -0.12594,-0.62974 -0.71816,-1.417365 -1.43509,-1.908609 -1.49302,-1.023038 -1.74084,-1.039 -1.74084,-0.112138 0,0.443074 0.44406,0.920004 1.14376,1.228421 0.89693,0.395353 1.19314,0.811852 1.37257,1.929939 0.12584,0.784183 0.37655,1.517102 0.55713,1.628706 0.18058,0.111607 0.32832,0.499044 0.32832,0.86097 0,0.776463 0.70474,1.565193 1.39852,1.565193 0.27025,0 0.49136,-0.24915 0.49136,-0.553667 z M 163.34,99.050744 c -0.11637,-0.116375 -0.42136,-2.41e-4 -0.67776,0.258074 -0.37051,0.373298 -0.3271,0.416714 0.2116,0.211593 0.37276,-0.141941 0.58254,-0.35329 0.46616,-0.469667 z m -0.33873,-1.30142 c -0.12535,-0.467746 -0.23023,-0.976352 -0.23307,-1.130228 -0.003,-0.153882 -0.33917,0.0062 -0.74742,0.355753 -0.55434,0.474644 -0.63831,0.760773 -0.33169,1.130229 0.70099,0.844637 1.57069,0.608848 1.31218,-0.355754 z m -3.55139,-1.375357 c -0.19429,-0.127071 -0.42128,-0.431765 -0.50442,-0.677095 -0.10961,-0.323416 -0.35851,-0.293333 -0.90528,0.109416 -0.60118,0.442825 -0.65019,0.619704 -0.24164,0.872199 0.57624,0.35614 2.20284,0.05619 1.65134,-0.30452 z m 2.64804,-0.125568 c 0.20292,-0.608762 -1.98594,-3.696248 -2.62044,-3.696248 -0.27181,0 -0.4942,-0.17009 -0.4942,-0.377976 0,-0.207888 -0.22446,-0.377976 -0.4988,-0.377976 -0.27435,0 -0.86168,-0.417335 -1.30518,-0.927409 -0.90076,-1.035966 -4.08105,-2.619478 -4.60747,-2.294131 -0.18694,0.115531 -0.80637,-0.222276 -1.37653,-0.750683 -0.91988,-0.85252 -1.64044,-1.079545 -1.75844,-0.554043 -0.0222,0.09875 0.15483,0.944941 0.39335,1.880433 0.56992,2.235261 2.51158,3.832095 4.9017,4.031205 0.93438,0.07784 2.17188,0.47833 2.74999,0.889979 0.57811,0.411652 1.20872,0.748459 1.40136,0.748459 0.19264,0 0.57782,0.425222 0.85597,0.94494 0.53336,0.996599 2.08185,1.313985 2.35869,0.48345 z m -4.73724,-0.507752 c 0.41482,-0.414819 0.47223,-0.710287 0.19239,-0.990129 -0.44416,-0.444161 -3.51313,-1.090731 -3.93617,-0.829273 -0.48253,0.29822 0.13979,1.286214 1.15896,1.839982 1.29697,0.704702 1.86406,0.700188 2.58482,-0.02056 z m 7.48052,-1.296378 c 0.13157,-0.414542 0.45429,-0.968786 0.71715,-1.231654 0.26287,-0.262864 0.58027,-1.108491 0.70533,-1.879164 0.21928,-1.351277 0.198,-1.384853 -0.59719,-0.941713 -0.45352,0.252738 -0.9606,0.672132 -1.12685,0.93199 -0.16624,0.25986 -0.54296,0.472471 -0.83715,0.472471 -0.29418,0 -0.70873,0.324837 -0.92121,0.721858 -0.26454,0.49431 -0.65597,0.662699 -1.24172,0.53418 -0.50435,-0.110664 -0.68472,-0.0579 -0.4395,0.128583 0.22873,0.173947 0.61742,0.698973 0.86374,1.166717 0.59207,1.124294 2.53058,1.189461 2.8774,0.09673 z m -15.9357,-2.829653 c 0.4941,-0.494096 0.48532,-0.767085 -0.0751,-2.333376 -0.75092,-2.098887 -1.27235,-2.395482 -1.87727,-1.067816 -0.63438,1.392301 -0.55093,2.190572 0.32757,3.133526 0.91484,0.981969 0.91108,0.981348 1.62476,0.267666 z m 17.6373,-3.509645 c 0,-0.49276 -0.11775,-0.477115 -0.75595,0.100454 -0.41578,0.376272 -0.7503,1.040466 -0.74338,1.475994 0.0122,0.770949 0.0322,0.768297 0.75595,-0.100457 0.40886,-0.490778 0.74338,-1.154972 0.74338,-1.475991 z m -27.45682,-0.243089 c 2.39832,-0.06896 2.89962,-0.220329 4.49477,-1.357209 1.40358,-1.00035 1.79538,-1.508625 1.79538,-2.329122 0,-1.452694 -1.40533,-4.011845 -2.37144,-4.318478 -1.62313,-0.515163 -4.30932,-2.434408 -4.83306,-3.453146 -0.8156,-1.586468 -2.61071,-4.036185 -3.1991,-4.36571 -0.68753,-0.38504 -1.43336,1.00715 -1.47274,2.749053 -0.0224,0.990052 -0.24242,1.416163 -0.8745,1.69351 -0.51474,0.225854 -1.06832,1.027168 -1.41741,2.051706 -0.76494,2.244955 -0.72197,3.184187 0.18313,4.003297 0.41578,0.376272 0.75596,0.917109 0.75596,1.201864 0,0.284758 0.42522,0.679411 0.94494,0.877004 0.72444,0.275431 0.94494,0.629772 0.94494,1.518505 0,1.424614 0.71084,2.29431 1.64735,2.015479 0.38633,-0.115022 1.91713,-0.244065 3.40178,-0.286753 z m -5.42711,-1.790964 c 0,-0.419172 -0.39406,-0.868847 -0.94494,-1.078291 -0.51971,-0.197593 -0.94494,-0.592246 -0.94494,-0.877004 0,-0.284755 -0.36503,-0.841756 -0.81117,-1.237776 -0.44615,-0.396026 -0.73512,-0.549952 -0.64217,-0.342064 0.093,0.207886 0.5201,1.143378 0.94921,2.078868 0.42912,0.93549 0.89019,2.017705 1.02462,2.40492 0.19982,0.575588 0.34703,0.618863 0.8069,0.237201 0.30937,-0.256754 0.56249,-0.790389 0.56249,-1.185854 z m 19.44669,-1.443136 c 1.50007,-1.032076 2.09795,-1.798648 2.09795,-2.689878 0,-0.650306 -1.88736,-0.349581 -2.66092,0.423982 -0.42408,0.424079 -1.18948,0.930137 -1.70089,1.124574 -0.52735,0.200499 -0.92985,0.657534 -0.92985,1.055838 0,1.562045 1.00838,1.589035 3.19371,0.08548 z m 4.06735,-1.678937 c 0.14767,-0.225057 0.74062,-0.445481 1.31765,-0.489836 0.57704,-0.04435 1.10941,-0.261414 1.18306,-0.482357 0.22895,-0.68685 2.11183,-1.457277 3.09988,-1.268399 0.7197,0.137578 1.13469,-0.08083 1.75962,-0.926087 l 0.81779,-1.106127 -1.38843,0.495869 c -0.76364,0.272729 -1.73808,0.50334 -2.16544,0.512463 -0.42736,0.0091 -1.35063,0.43979 -2.05172,0.957035 -0.70109,0.517247 -1.7984,1.038696 -2.43848,1.158774 -0.70513,0.132284 -1.32541,0.56084 -1.57393,1.087446 -0.3676,0.778928 -0.32809,0.848431 0.38067,0.669769 0.43495,-0.109644 0.91165,-0.38349 1.05933,-0.60855 z m -4.9787,-1.300022 c 0.61569,-0.540248 1.11942,-1.228662 1.11942,-1.529797 0,-0.301141 0.27025,-0.846143 0.60054,-1.211114 0.33029,-0.364972 0.74151,-1.288661 0.91382,-2.052646 l 0.31328,-1.389057 -1.73939,1.7394 c -0.95668,0.95667 -2.01643,1.7394 -2.35501,1.7394 -1.43533,0 -3.23063,3.133018 -2.18734,3.81717 0.62529,0.410046 2.19635,-0.114485 3.33468,-1.113356 z m 5.71987,-1.439482 c 0.38017,-0.344048 0.69122,-0.854315 0.69122,-1.133927 0,-0.279609 0.27596,-0.508381 0.61325,-0.508381 0.43359,0 0.50614,0.138414 0.24766,0.472469 -0.20107,0.259858 -0.48648,0.808646 -0.63423,1.219528 -0.25564,0.710883 -0.22645,0.708152 0.60278,-0.05647 0.47929,-0.441941 1.85943,-1.004861 3.06697,-1.250931 1.92721,-0.392724 2.18128,-0.547505 2.07887,-1.266449 -0.14024,-0.984547 -1.20174,-1.013574 -3.63018,-0.09927 -1.13535,0.427455 -1.82981,0.500951 -2.30921,0.244379 -1.04696,-0.560313 -3.50414,-0.03577 -3.72123,0.79438 -0.10043,0.384072 -0.33286,0.69831 -0.5165,0.69831 -0.18364,0 -0.33389,0.340177 -0.33389,0.755951 0,0.635132 0.25198,0.755954 1.57663,0.755954 0.93666,0 1.85722,-0.25392 2.26786,-0.625549 z m -10.19401,-0.791863 c 0.0903,-0.363802 0.0421,-1.086681 -0.10723,-1.606399 -0.14931,-0.519716 -0.29384,-1.710341 -0.32117,-2.645834 -0.0458,-1.566246 -0.0928,-1.643906 -0.59453,-0.981024 -0.35374,0.467399 -0.49346,1.329049 -0.39837,2.456844 0.24982,2.962825 1.0075,4.442904 1.4213,2.776413 z m -2.34572,-1.119688 c -0.41185,-0.642289 -0.42252,-0.641466 -0.21574,0.01667 0.11963,0.380804 0.23095,0.891072 0.24737,1.13393 0.0215,0.318693 0.0816,0.314053 0.21573,-0.01667 0.10225,-0.252028 -0.009,-0.762296 -0.24736,-1.133932 z m -1.34813,0.431231 c 0.82187,-0.821872 0.77251,-1.053113 -0.72426,-3.392942 -1.07418,-1.679207 -1.51152,-2.060914 -2.36235,-2.0618 -0.73974,-7.94e-4 -1.26451,-0.331872 -1.80008,-1.135772 -0.41578,-0.624075 -1.77649,-1.761384 -3.02381,-2.527355 -1.24732,-0.765969 -2.31931,-1.514816 -2.3822,-1.664102 -0.52001,-1.234419 -3.93361,-3.365138 -5.39125,-3.365138 -0.41669,0 -1.20219,-0.291298 -1.74557,-0.647329 -0.95896,-0.628338 -0.97608,-0.625565 -0.58358,0.09449 0.69168,1.268915 3.16598,3.389492 6.51182,5.580896 3.24153,2.12308 5.00739,3.940416 6.04762,6.223934 0.35842,0.786783 1.26214,1.650396 2.45685,2.347793 2.23947,1.307267 2.23727,1.306864 2.99681,0.547322 z m 22.79219,-0.39035 c -0.1256,-0.125598 -0.45161,-0.139025 -0.72446,-0.02984 -0.30152,0.120658 -0.21196,0.210222 0.22837,0.22836 0.39844,0.0164 0.62169,-0.07292 0.49609,-0.19852 z m -8.39228,-1.275392 c 0.49354,0.409593 1.80577,0.244396 3.67545,-0.462706 1.20221,-0.454668 1.3765,-1.057349 0.30579,-1.057349 -0.4035,0 -0.82496,-0.147749 -0.93656,-0.32833 -0.11161,-0.18058 -0.91181,-0.441684 -1.77824,-0.580231 -1.33186,-0.212973 -1.80046,-0.09587 -3.03218,0.757709 -0.80128,0.555289 -1.45688,1.142396 -1.45688,1.304687 0,0.499768 0.89973,0.644241 1.84137,0.295674 0.56649,-0.209701 1.07486,-0.183735 1.38125,0.07055 z m 10.09526,-0.195773 c 0.48551,-0.663237 0.31845,-0.879835 -0.88202,-1.1435 -1.32329,-0.290642 -2.0736,0.209804 -1.71513,1.143963 0.25923,0.675558 2.10251,0.67523 2.59715,-5.29e-4 z m -18.98752,-0.25925 c 0,-0.245779 -0.1919,-1.943232 -0.42644,-3.772114 -0.41321,-3.222029 -1.08546,-4.2375 -1.08546,-1.639647 0,0.703067 -0.18491,1.392585 -0.41091,1.532261 -0.2959,0.182874 -0.2959,0.368969 0,0.664866 0.226,0.226002 0.41091,1.142293 0.41091,2.036207 0,1.373314 0.1172,1.625298 0.75595,1.625298 0.41577,0 0.75595,-0.201091 0.75595,-0.446871 z m 15.875,-0.142401 c 0,-0.324099 -0.17286,-0.482433 -0.38414,-0.351859 -0.21128,0.130577 -0.28629,0.395751 -0.16668,0.589272 0.32401,0.52427 0.55082,0.426514 0.55082,-0.237413 z m 4.91369,0.271968 c 0,-0.174519 0.43481,-0.515422 0.96626,-0.75756 0.53143,-0.242142 0.86782,-0.59953 0.7475,-0.794198 -0.2576,-0.416814 -2.37145,0.701048 -2.64092,1.396593 -0.10067,0.259858 0.0668,0.472469 0.37206,0.472469 0.3053,0 0.5551,-0.142788 0.5551,-0.317304 z m -24.81599,-0.643938 c -0.12311,-0.320796 -0.30489,-0.5022 -0.40397,-0.403122 -0.0991,0.09908 -0.068,0.361548 0.069,0.583264 0.37271,0.603046 0.59055,0.485894 0.33497,-0.180142 z m -0.87173,-4.301701 c -0.73048,-1.431841 -1.52656,-2.038155 -1.52656,-1.162651 0,0.207886 0.16685,0.377976 0.37077,0.377976 0.20393,0 0.47662,0.467746 0.60599,1.039434 0.12937,0.571688 0.43027,1.516388 0.66866,2.099329 l 0.43345,1.059894 0.11683,-0.936678 c 0.0643,-0.515173 -0.23686,-1.62996 -0.66914,-2.477304 z m -0.64856,2.144641 c -0.34741,-1.595774 -0.98678,-2.6078 -1.31792,-2.086081 -0.43762,0.689472 -0.40268,0.834551 0.46735,1.940613 0.9566,1.216123 1.08858,1.238694 0.85057,0.145468 z m 30.48307,-0.646695 c 0.30581,-0.1934 0.44072,-0.466942 0.29979,-0.607872 -0.34589,-0.345882 -1.42277,0.09406 -1.42277,0.581244 0,0.480071 0.39132,0.48935 1.12298,0.02663 z m -26.97671,-2.51052 c 0.0697,-0.777266 0.334,-1.541264 0.58724,-1.697776 0.36187,-0.223647 0.36175,-0.403489 -7.9e-4,-0.84007 -0.25356,-0.305525 -0.52295,-1.04479 -0.59863,-1.642806 -0.19968,-1.5778 -1.73451,-4.05016 -2.21564,-3.569031 -0.26271,0.262708 -0.24325,0.558049 0.0609,0.924552 0.53973,0.650338 0.49885,2.750558 -0.0773,3.972719 -0.34182,0.725048 -0.2991,0.976008 0.23231,1.364586 0.35814,0.261879 0.65117,0.91123 0.65117,1.442998 0,2.56196 1.13134,2.599237 1.36055,0.04483 z m 25.09778,1.339519 c 0,-0.195617 -0.25514,-0.355668 -0.56697,-0.355668 -0.5845,0 -0.75092,0.445997 -0.32525,0.871669 0.30197,0.301977 0.89222,-0.03938 0.89222,-0.516001 z m -30.84755,-2.446332 c -0.34478,-0.526206 -0.71619,-0.867428 -0.82534,-0.758272 -0.18178,0.181779 0.99214,1.715008 1.3131,1.715008 0.0765,0 -0.14297,-0.430533 -0.48776,-0.956736 z m 2.03907,-0.460677 c -0.0799,-0.155913 -0.52415,-1.08436 -0.9872,-2.063212 -1.12814,-2.384783 -1.57634,-2.576584 -1.57634,-0.674571 0,2.064707 0.55269,3.021266 1.74569,3.021266 0.52972,0 0.89776,-0.127566 0.81785,-0.283483 z m 1.02438,-4.65855 c -0.14442,-1.438169 -0.40066,-2.529525 -0.5694,-2.425234 -0.16874,0.104288 -0.62061,-0.241168 -1.00414,-0.767678 l -0.69734,-0.957294 -0.71708,1.331536 c -0.58315,1.082847 -0.63539,1.490705 -0.27969,2.183768 0.39106,0.761955 0.413,0.717098 0.20713,-0.423476 -0.1525,-0.844892 -0.0963,-1.192943 0.16629,-1.030624 0.21811,0.134798 0.5092,0.996244 0.64688,1.914324 0.13767,0.918083 0.57272,1.961015 0.96678,2.317628 0.39405,0.356616 0.72163,0.919684 0.72795,1.251268 0.01,0.499295 0.0805,0.484134 0.41336,-0.08825 0.25271,-0.434607 0.3044,-1.661638 0.13926,-3.305971 z m -15.90451,-2.032624 c -1.22952,-1.134481 -2.41215,-2.070357 -2.62805,-2.079731 -0.2159,-0.0094 -1.05979,-0.357219 -1.8753,-0.772991 -0.81552,-0.415774 -1.52766,-0.755954 -1.58253,-0.755954 -0.0549,0 0.35514,0.753112 0.91112,1.673582 1.00793,1.668701 3.16603,3.228091 4.50263,3.253502 0.38747,0.0074 1.12946,0.248584 1.64886,0.536038 1.66492,0.921414 1.31816,0.263035 -0.97673,-1.854446 z m 15.55615,-3.362939 c -0.12771,-0.654873 -0.52615,-1.571048 -0.88543,-2.035945 -0.64488,-0.834446 -0.65324,-0.821328 -0.65324,1.02476 0,1.317805 0.22036,2.125496 0.74624,2.735146 0.68714,0.796608 0.75727,0.80975 0.88543,0.165921 0.0766,-0.384564 0.0347,-1.235012 -0.093,-1.889882 z m -1.72766,-1.772608 c 0,-0.216119 -0.63783,-1.054134 -1.41741,-1.862254 -0.77958,-0.808122 -1.90461,-2.000903 -2.50008,-2.65063 -0.59547,-0.649724 -1.17729,-1.086691 -1.29294,-0.971039 -0.11566,0.115654 0.062,0.507248 0.39484,0.870209 0.33282,0.362963 1.04221,1.135409 1.57643,1.716545 0.53422,0.581139 0.9713,1.170469 0.9713,1.309624 0,0.331489 1.61847,1.928154 1.98438,1.957642 0.15591,0.01257 0.28348,-0.15398 0.28348,-0.370097 z"
       id="path4645"
       inkscape:connector-curvature="0" />
  </g>
</svg>
